<svg width="54" height="54" viewBox="0 0 54 54" fill="none" xmlns="http://www.w3.org/2000/svg">
<path d="M14.0449 32.6974C14.0449 31.8015 13.6926 30.9423 13.0655 30.3089C12.4384 29.6754 11.5878 29.3195 10.7009 29.3195H2.00642C0.898305 29.3195 0 28.4121 0 27.2928C0 26.1735 0.898305 25.2661 2.00642 25.2661H10.7009C12.652 25.2661 14.5234 26.049 15.9031 27.4426C17.2827 28.8362 18.0578 30.7265 18.0578 32.6974C18.0578 33.5932 18.4101 34.4523 19.0372 35.0858C19.6644 35.7192 20.515 36.0751 21.4019 36.0751H32.1027C32.9896 36.0751 33.8402 35.7192 34.4673 35.0858C35.0944 34.4523 35.4468 33.5932 35.4468 32.6974C35.4468 30.7265 36.2218 28.8362 37.6015 27.4426C38.9812 26.049 40.8525 25.2661 42.8036 25.2661H51.4982C52.6063 25.2661 53.5046 26.1735 53.5046 27.2928C53.5046 28.4121 52.6063 29.3195 51.4982 29.3195H42.8036C41.9167 29.3195 41.0662 29.6754 40.4391 30.3089C39.812 30.9423 39.4596 31.8015 39.4596 32.6974C39.4596 34.6682 38.6845 36.5584 37.3048 37.952C35.9251 39.3456 34.0539 40.1285 32.1027 40.1285H21.4019C19.4507 40.1285 17.5793 39.3456 16.1997 37.952C14.82 36.5584 14.045 34.6682 14.0449 32.6974Z" fill="black" fill-opacity="0.6"/>
<path d="M0 35.9424V18.5534C1.26695e-07 13.7642 1.90253 9.17112 5.28902 5.78462C8.67551 2.39813 13.2686 0.495606 18.0578 0.495605H31.0995C32.2076 0.495605 33.1059 1.39391 33.1059 2.50203C33.1059 3.61014 32.2076 4.50845 31.0995 4.50845H18.0578C14.3328 4.50845 10.7604 5.98814 8.12647 8.62207C5.49253 11.256 4.01284 14.8284 4.01284 18.5534V35.9424C4.01285 39.6673 5.49257 43.2397 8.12647 45.8736C10.7604 48.5075 14.3328 49.9873 18.0578 49.9873H35.4468C39.1717 49.9873 42.7441 48.5075 45.378 45.8736C48.0119 43.2397 49.4917 39.6673 49.4917 35.9424V22.9007C49.4917 21.7926 50.39 20.8943 51.4982 20.8943C52.6063 20.8943 53.5046 21.7926 53.5046 22.9007V35.9424C53.5046 40.7316 51.602 45.3247 48.2156 48.7112C44.8291 52.0977 40.236 54.0002 35.4468 54.0002H18.0578C13.2686 54.0002 8.67551 52.0977 5.28902 48.7112C1.90254 45.3247 1.05468e-05 40.7316 0 35.9424Z" fill="black" fill-opacity="0.6"/>
<path d="M49.9987 8.66966C49.9987 6.09145 47.9085 4.0014 45.3303 4.0014C42.7521 4.00142 40.6621 6.09146 40.662 8.66966C40.662 11.2479 42.7521 13.338 45.3303 13.338C47.9085 13.338 49.9987 11.2479 49.9987 8.66966ZM54.0001 8.66966C54.0001 13.4578 50.1185 17.3394 45.3303 17.3394C40.5422 17.3394 36.6606 13.4578 36.6606 8.66966C36.6607 3.88155 40.5422 2.21057e-05 45.3303 0C50.1184 0 54.0001 3.88154 54.0001 8.66966Z" fill="black" fill-opacity="0.6"/>
</svg>
