<svg width="54" height="54" viewBox="0 0 54 54" fill="none" xmlns="http://www.w3.org/2000/svg">
<path d="M50.2053 3.83414C48.985 2.61141 47.533 1.64278 45.9338 0.984587C44.3346 0.326391 42.6201 -0.0082397 40.89 0.000154082H13.1606C9.67241 0.0072884 6.32911 1.39207 3.86256 3.85137C1.39601 6.31067 0.00715534 9.64415 0 13.1221V40.851C0.00712385 44.3315 1.39511 47.6678 3.86089 50.1314C6.32667 52.595 9.66992 53.9857 13.1606 54H30.3561C31.358 53.9919 32.3518 53.7894 33.2807 53.406L33.7139 53.19L33.9306 53.055C34.6047 52.7287 35.2182 52.2905 35.7449 51.759L51.9926 35.5591C52.5423 35.0191 52.9999 34.3873 53.3466 33.6961L53.5632 33.2371C53.5748 33.1294 53.5748 33.0207 53.5632 32.9131C53.8529 32.1166 53.9965 31.2769 53.9965 30.4291V13.3111C54.0374 11.5583 53.7227 9.81529 53.0712 8.18675C52.4197 6.55821 51.4449 5.07771 50.2053 3.83414ZM33.9577 47.547L33.037 40.122C32.9343 39.2112 33.036 38.2889 33.3348 37.422C33.6322 36.5142 34.1428 35.6903 34.8242 35.0191C35.5062 34.3312 36.3411 33.8132 37.2614 33.5071C38.1737 33.1916 39.1466 33.09 40.1047 33.2101L47.5515 34.1281L33.9577 47.547Z" fill="black"/>
</svg>
