<svg width="56" height="53" viewBox="0 0 56 53" fill="none" xmlns="http://www.w3.org/2000/svg">
<path fill-rule="evenodd" clip-rule="evenodd" d="M12.1642 29.6901C16.6659 29.6901 24.0127 28.4871 24.8854 28.3314C25.2436 28.3014 29.5952 27.3629 27.4166 29.1544C25.107 31.1145 21.449 32.7913 18.674 34.2978C17.2654 34.9882 16.0153 35.6447 14.8289 36.5933C14.3769 36.9547 13.9185 37.3628 13.5594 37.8204C12.8843 38.6809 12.635 38.8589 12.0033 39.9517C11.6801 40.5109 11.4586 40.997 11.1977 41.638C10.4527 43.469 10.068 46.5936 9.70248 48.7431C9.63261 49.1538 9.54594 49.6312 9.54594 50.1C9.54594 51.0909 10.1882 51.9529 10.7837 52.3844C11.4697 52.8812 12.498 53.1745 13.5224 52.8482C14.1209 52.6575 14.7102 52.267 15.2735 51.9898C17.8042 50.7441 20.325 49.2997 22.8557 48.0482C24.0382 47.4635 25.1745 46.7156 26.4347 46.2994C29.019 45.4459 30.9503 46.9524 33.129 48.0301L38.958 51.0614C39.5024 51.3896 42.0022 52.6955 42.5398 52.8613C44.6225 53.5038 46.475 51.8121 46.475 49.884C46.475 48.8152 44.184 37.274 44.184 36.1154C44.184 35.2281 44.323 34.4965 44.6119 33.7852C45.0935 32.5995 45.8653 32.0589 46.7071 31.2157C47.2912 30.6308 47.8567 30.0044 48.4802 29.4611L50.3071 27.7058C50.4083 27.6055 50.4759 27.5297 50.5792 27.4351L51.5071 26.572C51.92 26.1632 52.2918 25.7888 52.7062 25.3831C52.8345 25.2572 52.8739 25.2469 53.0048 25.1387L53.9073 24.2501C54.7181 23.4476 55.6879 22.7612 55.9357 21.5604C56.2037 20.2607 55.6119 19.0581 54.5711 18.3827C53.996 18.0096 53.5216 17.9676 52.7094 17.8497C51.3664 17.6546 49.9669 17.4514 48.5715 17.248L42.4291 16.3628C40.3998 16.0796 38.7076 15.9484 37.2977 14.3688C36.4747 13.4467 34.7648 9.69306 34.0199 8.21835L31.6743 3.52085C31.3952 2.96835 31.1376 2.50075 30.8903 1.9212C29.8626 -0.487121 26.4877 -0.697356 25.255 1.6662C25.1299 1.90605 25.023 2.12986 24.8921 2.38683L23.8194 4.56465C22.834 6.51531 21.8943 8.42977 20.9102 10.3781C20.4142 11.36 19.9746 12.3237 19.4744 13.2765C18.7083 14.7355 17.3663 15.7024 15.7321 16.0514C14.7659 16.2578 11.0582 16.7341 9.97281 16.8841L4.25779 17.7063C3.6559 17.7889 2.96247 17.864 2.36733 17.9948C1.27078 18.2357 0.454304 19.0883 0.14302 20.1127C0.0587386 20.3902 0.0131192 20.6479 0 20.8892V21.1771C0.0746405 22.5216 1.20011 23.3451 2.19559 24.3312C3.00152 25.1295 4.96086 26.3612 5.97691 27.1215L8.18174 28.7187C9.21001 29.4569 10.5664 29.6901 12.1642 29.6901Z" fill="white"/>
</svg>
