<svg width="54" height="54" viewBox="0 0 54 54" fill="none" xmlns="http://www.w3.org/2000/svg">
<path d="M49.95 13.1247C49.95 10.7167 48.9957 8.40887 47.2948 6.70793C45.593 5.0061 43.2847 4.05 40.8779 4.05H13.1247C10.7183 4.05 8.41044 5.00584 6.70867 6.70719C5.00693 8.40853 4.05059 10.7161 4.05 13.1224V40.8753L4.05074 40.9869C4.06494 42.1408 4.29909 43.2818 4.74102 44.3485C5.1972 45.4496 5.86579 46.4501 6.70867 47.2928C7.55157 48.1355 8.55222 48.8039 9.65347 49.2598C10.7547 49.7158 11.935 49.9503 13.1269 49.95H30.2482C30.2708 49.95 30.2934 49.9495 30.316 49.9491L29.154 40.6568V40.6567C28.9568 39.0924 29.1198 37.5037 29.6304 36.0119C30.1413 34.5194 30.9868 33.1635 32.1021 32.0478C33.2174 30.9322 34.5731 30.0864 36.0655 29.5751C37.5572 29.0639 39.1461 28.9005 40.7107 29.0974H40.7108L49.9499 30.2527C49.9499 30.2515 49.95 30.2503 49.95 30.249V13.1247ZM40.2063 33.1158C39.2538 32.9958 38.2865 33.0951 37.3783 33.4063C36.4701 33.7175 35.6451 34.2323 34.9663 34.9112C34.2876 35.5901 33.7731 36.4154 33.4622 37.3237C33.161 38.2036 33.0586 39.1389 33.1618 40.0624L33.1725 40.1518L33.1727 40.1541L34.0992 47.563L47.6194 34.0428L40.2082 33.116C40.2075 33.1159 40.2069 33.1159 40.2063 33.1158ZM54 30.2472L53.9994 30.3407C53.9894 31.18 53.84 32.011 53.5581 32.8002C53.503 33.1623 53.3545 33.4882 53.1403 33.7566C52.7823 34.4427 52.3206 35.0711 51.7706 35.6192L35.6193 51.7707L35.6192 51.7706C35.0568 52.3352 34.4098 52.8067 33.7026 53.1686C33.507 53.304 33.2853 53.4063 33.0447 53.4664C32.154 53.8196 31.2042 54.0008 30.2453 53.9999L13.1274 54V53.9999C11.4037 54.0002 9.69689 53.6612 8.10432 53.0018C6.5116 52.3424 5.0644 51.3757 3.84532 50.1569C2.62625 48.9381 1.65917 47.4912 0.999398 45.8986C0.339621 44.3061 -5.09998e-08 42.599 0 40.8752V13.1215L0.00111236 12.9584C0.0444031 9.53706 1.42252 6.26518 3.84532 3.84297C6.30658 1.38234 9.64437 5.53785e-06 13.1247 0H40.8779C44.3588 0 47.6972 1.38275 50.1585 3.84409C52.6208 6.30633 54 9.64505 54 13.1247V30.2472Z" fill="black" fill-opacity="0.6"/>
</svg>
