<svg width="54" height="54" viewBox="0 0 54 54" fill="none" xmlns="http://www.w3.org/2000/svg">
<mask id="mask0_146_1460" style="mask-type:luminance" maskUnits="userSpaceOnUse" x="0" y="0" width="54" height="54">
<path d="M0 0H54V54H0V0Z" fill="white"/>
</mask>
<g mask="url(#mask0_146_1460)">
<path d="M53.3333 22.987V36.0003C53.3263 40.7721 51.4276 45.3463 48.0535 48.7205C44.6793 52.0946 40.1051 53.9933 35.3333 54.0003H18C13.2283 53.9933 8.654 52.0946 5.27987 48.7205C1.90574 45.3463 0.00705357 40.7721 0 36.0003V18.667C0.00705357 13.8953 1.90574 9.32099 5.27987 5.94686C8.654 2.57273 13.2283 0.674046 18 0.666992H30.9867C31.5171 0.666992 32.0258 0.877706 32.4009 1.25278C32.776 1.62785 32.9867 2.13656 32.9867 2.66699C32.9867 3.19743 32.776 3.70613 32.4009 4.08121C32.0258 4.45628 31.5171 4.66699 30.9867 4.66699H18C14.287 4.66699 10.726 6.14199 8.1005 8.7675C5.475 11.393 4 14.954 4 18.667V25.3337H10.6667C12.6116 25.3337 14.4769 26.1063 15.8521 27.4815C17.2274 28.8568 18 30.7221 18 32.667C18 33.551 18.3512 34.3989 18.9763 35.024C19.6014 35.6491 20.4493 36.0003 21.3333 36.0003H32C32.8819 35.9934 33.7257 35.6399 34.3493 35.0163C34.9729 34.3927 35.3264 33.5489 35.3333 32.667C35.3262 31.702 35.5111 30.7452 35.8771 29.8523C36.2431 28.9594 36.783 28.1481 37.4654 27.4657C38.1478 26.7833 38.959 26.2434 39.852 25.8774C40.7449 25.5114 41.7017 25.3266 42.6667 25.3337H49.3333V22.987C49.3333 22.4566 49.544 21.9479 49.9191 21.5728C50.2942 21.1977 50.8029 20.987 51.3333 20.987C51.8638 20.987 52.3725 21.1977 52.7475 21.5728C53.1226 21.9479 53.3333 22.4566 53.3333 22.987Z" fill="black"/>
<path d="M45.3334 17.3333C47.6319 17.3333 49.8363 16.4202 51.4616 14.7949C53.0869 13.1696 54 10.9652 54 8.66667C54 6.36812 53.0869 4.16372 51.4616 2.53841C49.8363 0.913092 47.6319 0 45.3334 0C43.0348 0 40.8304 0.913092 39.2051 2.53841C37.5798 4.16372 36.6667 6.36812 36.6667 8.66667C36.6667 10.9652 37.5798 13.1696 39.2051 14.7949C40.8304 16.4202 43.0348 17.3333 45.3334 17.3333Z" fill="black"/>
</g>
</svg>
